<svg width="17" height="17" viewBox="0 0 17 17" fill="none" xmlns="http://www.w3.org/2000/svg">
<path d="M11.339 1.41668C11.339 3.27676 10.9073 4.96968 10.2028 6.23335C9.90457 6.00925 9.56476 5.84629 9.20302 5.7539C8.84128 5.6615 8.46477 5.64149 8.09524 5.69501C7.69758 4.30385 6.80284 2.80501 5.48488 1.48893C5.26112 1.26536 5.02849 1.0508 4.78755 0.845761C5.94441 0.287195 7.21333 -0.00199468 8.49858 1.03552e-05C9.47995 1.03552e-05 10.423 0.16576 11.3007 0.470344C11.3262 0.780594 11.339 1.09651 11.339 1.41668ZM11.339 8.50001C11.339 8.60343 11.3333 8.70685 11.322 8.80743C12.7678 8.78051 14.4464 8.30735 16.0527 7.38226C16.3293 7.22269 16.5994 7.05208 16.8622 6.87085C16.4298 4.66253 15.1378 2.7151 13.2691 1.45493C13.2115 1.75954 13.1428 2.06196 13.0632 2.36159C12.5803 4.15935 11.7225 5.6851 10.7113 6.72351C11.1047 7.20943 11.339 7.82851 11.339 8.50001ZM11.1444 9.53135C11.0074 9.88018 10.8026 10.1986 10.5418 10.4682C10.281 10.7378 9.96939 10.9533 9.62481 11.1024C10.3704 12.3349 11.6202 13.5462 13.2251 14.4699C13.5091 14.6342 13.796 14.7844 14.0843 14.9189C14.9309 14.1876 15.6243 13.2966 16.1247 12.2972C16.6251 11.2977 16.9225 10.2095 17 9.09501C16.7046 9.19843 16.4021 9.29335 16.0896 9.37693C14.2945 9.85718 12.549 9.88126 11.1444 9.53276V9.53135ZM8.49858 11.3333C7.85948 11.3333 7.26867 11.1223 6.79432 10.7667C6.09273 12.0275 5.66383 13.7162 5.66383 15.5706C5.66383 15.8964 5.67803 16.218 5.70217 16.5311C6.60144 16.8424 7.54671 17.0009 8.49858 17C9.83358 17 11.0976 16.694 12.2238 16.1472C11.9799 15.9405 11.7444 15.724 11.518 15.4984C10.2043 14.1865 9.30952 12.6919 8.91044 11.305C8.77694 11.3234 8.63918 11.3333 8.49858 11.3333V11.3333ZM5.65815 8.50001C5.65815 8.38668 5.66525 8.27335 5.67803 8.16143C4.22941 8.18551 2.54645 8.65868 0.934503 9.58801C0.658889 9.7467 0.389777 9.91636 0.127819 10.0966C0.338237 11.1936 0.763231 12.2385 1.37853 13.1717C1.99383 14.1049 2.78738 14.908 3.71387 15.5352C3.77153 15.2241 3.84165 14.9155 3.92406 14.6101C4.40693 12.8152 5.25906 11.2923 6.26742 10.2538C5.87148 9.75471 5.65672 9.13651 5.65815 8.50001ZM0.904678 7.60468C2.70409 7.12301 4.45238 7.10176 5.8584 7.4531C6.13676 6.75326 6.68638 6.19226 7.37803 5.89476C6.63383 4.6566 5.3812 3.43968 3.76926 2.51176C3.49409 2.35323 3.21266 2.20578 2.92565 2.06976C2.07808 2.79946 1.38333 3.68893 0.881273 4.68714C0.379212 5.68535 0.0797246 6.77264 0 7.8866C0.292565 7.78176 0.593651 7.68826 0.904678 7.60468V7.60468ZM8.49858 9.91668C8.87524 9.91668 9.23648 9.76743 9.50282 9.50175C9.76917 9.23607 9.9188 8.87574 9.9188 8.50001C9.9188 8.12429 9.76917 7.76396 9.50282 7.49828C9.23648 7.2326 8.87524 7.08335 8.49858 7.08335C8.12191 7.08335 7.76068 7.2326 7.49433 7.49828C7.22799 7.76396 7.07836 8.12429 7.07836 8.50001C7.07836 8.87574 7.22799 9.23607 7.49433 9.50175C7.76068 9.76743 8.12191 9.91668 8.49858 9.91668Z" fill="white"/>
</svg>
