<svg width="143" height="26" viewBox="0 0 143 26" fill="none" xmlns="http://www.w3.org/2000/svg">
<path d="M27.3867 26H22.8164V19.8125H6.75V26H2.17969V13.3965C2.17969 11.5566 2.49609 9.86328 3.12891 8.31641C3.76172 6.76953 4.64062 5.43945 5.76562 4.32617C6.89062 3.21289 8.2207 2.3457 9.75586 1.72461C11.291 1.10352 12.9668 0.792969 14.7832 0.792969H25.084C25.4004 0.792969 25.6992 0.851562 25.9805 0.96875C26.2617 1.08594 26.5078 1.25 26.7188 1.46094C26.9297 1.67188 27.0938 1.91797 27.2109 2.19922C27.3281 2.48047 27.3867 2.7793 27.3867 3.0957V26ZM6.75 15.2422H22.8164V5.36328H14.7832C14.6426 5.36328 14.3438 5.38672 13.8867 5.43359C13.4414 5.46875 12.9199 5.56836 12.3223 5.73242C11.7363 5.89648 11.1152 6.14844 10.459 6.48828C9.80273 6.82812 9.19922 7.29688 8.64844 7.89453C8.09766 8.49219 7.64062 9.24219 7.27734 10.1445C6.92578 11.0352 6.75 12.1191 6.75 13.3965V15.2422ZM56.9355 18.582C56.9355 19.4844 56.8184 20.2988 56.584 21.0254C56.3613 21.7402 56.0625 22.373 55.6875 22.9238C55.3125 23.4746 54.873 23.9434 54.3691 24.3301C53.8652 24.7168 53.3438 25.0332 52.8047 25.2793C52.2656 25.5254 51.7148 25.707 51.1523 25.8242C50.6016 25.9414 50.0801 26 49.5879 26H31.957V21.4297H49.5879C50.4668 21.4297 51.1465 21.1719 51.627 20.6562C52.1191 20.1406 52.3652 19.4492 52.3652 18.582C52.3652 18.1602 52.3008 17.7734 52.1719 17.4219C52.043 17.0703 51.8555 16.7656 51.6094 16.5078C51.375 16.25 51.082 16.0508 50.7305 15.9102C50.3906 15.7695 50.0098 15.6992 49.5879 15.6992H39.0762C38.3379 15.6992 37.541 15.5703 36.6855 15.3125C35.8301 15.043 35.0332 14.6152 34.2949 14.0293C33.5684 13.4434 32.959 12.6758 32.4668 11.7266C31.9863 10.7773 31.7461 9.61719 31.7461 8.24609C31.7461 6.875 31.9863 5.7207 32.4668 4.7832C32.959 3.83398 33.5684 3.06641 34.2949 2.48047C35.0332 1.88281 35.8301 1.45508 36.6855 1.19727C37.541 0.927734 38.3379 0.792969 39.0762 0.792969H54.6328V5.36328H39.0762C38.209 5.36328 37.5293 5.62695 37.0371 6.1543C36.5566 6.68164 36.3164 7.37891 36.3164 8.24609C36.3164 9.125 36.5566 9.82227 37.0371 10.3379C37.5293 10.8418 38.209 11.0938 39.0762 11.0938H49.5879H49.623C50.1152 11.1055 50.6367 11.1758 51.1875 11.3047C51.7383 11.4219 52.2832 11.6094 52.8223 11.8672C53.373 12.125 53.8945 12.4531 54.3867 12.8516C54.8789 13.2383 55.3125 13.707 55.6875 14.2578C56.0742 14.8086 56.3789 15.4414 56.6016 16.1562C56.8242 16.8711 56.9355 17.6797 56.9355 18.582ZM85.9219 9.26562C85.9219 10.3086 85.793 11.2402 85.5352 12.0605C85.2773 12.8809 84.9258 13.6074 84.4805 14.2402C84.0469 14.8613 83.543 15.3945 82.9688 15.8398C82.3945 16.2852 81.791 16.6543 81.1582 16.9473C80.5371 17.2285 79.9043 17.4336 79.2598 17.5625C78.627 17.6914 78.0293 17.7559 77.4668 17.7559L87.0117 26H79.9453L70.418 17.7559H67.1309V13.1855H77.4668C78.041 13.1387 78.5625 13.0215 79.0312 12.834C79.5117 12.6348 79.9219 12.3711 80.2617 12.043C80.6133 11.7148 80.8828 11.3223 81.0703 10.8652C81.2578 10.3965 81.3516 9.86328 81.3516 9.26562V6.38281C81.3516 6.125 81.3164 5.93164 81.2461 5.80273C81.1875 5.66211 81.1055 5.5625 81 5.50391C80.9062 5.43359 80.8008 5.39258 80.6836 5.38086C80.5781 5.36914 80.4785 5.36328 80.3848 5.36328H65.3027V26H60.7324V3.0957C60.7324 2.7793 60.791 2.48047 60.9082 2.19922C61.0254 1.91797 61.1836 1.67188 61.3828 1.46094C61.5938 1.25 61.8398 1.08594 62.1211 0.96875C62.4023 0.851562 62.707 0.792969 63.0352 0.792969H80.3848C81.4043 0.792969 82.2656 0.980469 82.9688 1.35547C83.6719 1.71875 84.2402 2.18164 84.6738 2.74414C85.1191 3.29492 85.4355 3.89258 85.623 4.53711C85.8223 5.18164 85.9219 5.78516 85.9219 6.34766V9.26562ZM115.629 11.3398C115.629 12.3828 115.5 13.3145 115.242 14.1348C114.984 14.9551 114.633 15.6816 114.188 16.3145C113.754 16.9355 113.25 17.4688 112.676 17.9141C112.102 18.3594 111.498 18.7227 110.865 19.0039C110.244 19.2852 109.611 19.4902 108.967 19.6191C108.334 19.748 107.736 19.8125 107.174 19.8125H96.8379V15.2422H107.174C107.76 15.1953 108.287 15.0781 108.756 14.8906C109.236 14.6914 109.646 14.4277 109.986 14.0996C110.326 13.7715 110.59 13.3789 110.777 12.9219C110.965 12.4531 111.059 11.9258 111.059 11.3398V9.26562C111 8.69141 110.877 8.16406 110.689 7.68359C110.502 7.20313 110.244 6.79297 109.916 6.45312C109.6 6.11328 109.213 5.84961 108.756 5.66211C108.299 5.46289 107.771 5.36328 107.174 5.36328H96.873C96.2637 5.36328 95.8008 5.52148 95.4844 5.83789C95.168 6.1543 95.0098 6.61133 95.0098 7.20898V26H90.4395V7.20898C90.4395 6.03711 90.6504 5.04102 91.0723 4.2207C91.5059 3.40039 92.0391 2.73828 92.6719 2.23438C93.3164 1.73047 94.0137 1.36719 94.7637 1.14453C95.5137 0.910156 96.2051 0.792969 96.8379 0.792969H107.174C108.205 0.792969 109.131 0.927734 109.951 1.19727C110.771 1.45508 111.492 1.80664 112.113 2.25195C112.746 2.68555 113.279 3.18945 113.713 3.76367C114.158 4.33789 114.521 4.94141 114.803 5.57422C115.096 6.19531 115.307 6.82812 115.436 7.47266C115.564 8.10547 115.629 8.70312 115.629 9.26562V11.3398Z" fill="white"/>
<path d="M27.3867 26V26.5H27.8867V26H27.3867ZM22.8164 26H22.3164V26.5H22.8164V26ZM22.8164 19.8125H23.3164V19.3125H22.8164V19.8125ZM6.75 19.8125V19.3125H6.25V19.8125H6.75ZM6.75 26V26.5H7.25V26H6.75ZM2.17969 26H1.67969V26.5H2.17969V26ZM6.75 15.2422H6.25V15.7422H6.75V15.2422ZM22.8164 15.2422V15.7422H23.3164V15.2422H22.8164ZM22.8164 5.36328H23.3164V4.86328H22.8164V5.36328ZM13.8867 5.43359L13.9261 5.93218L13.9377 5.93098L13.8867 5.43359ZM12.3223 5.73242L12.1899 5.25025L12.1875 5.25094L12.3223 5.73242ZM7.27734 10.1445L6.81351 9.95779L6.81227 9.96095L7.27734 10.1445ZM27.3867 25.5H22.8164V26.5H27.3867V25.5ZM23.3164 26V19.8125H22.3164V26H23.3164ZM22.8164 19.3125H6.75V20.3125H22.8164V19.3125ZM6.25 19.8125V26H7.25V19.8125H6.25ZM6.75 25.5H2.17969V26.5H6.75V25.5ZM2.67969 26V13.3965H1.67969V26H2.67969ZM2.67969 13.3965C2.67969 11.615 2.98582 9.98671 3.59168 8.50572L2.66613 8.12709C2.00637 9.73985 1.67969 11.4983 1.67969 13.3965H2.67969ZM3.59168 8.50572C4.20047 7.01757 5.04279 5.74491 6.11732 4.68157L5.41393 3.97077C4.23846 5.134 3.32297 6.52149 2.66613 8.12709L3.59168 8.50572ZM6.11732 4.68157C7.19312 3.61698 8.46667 2.78556 9.94338 2.18811L9.56834 1.26111C7.97473 1.90585 6.58813 2.8088 5.41393 3.97077L6.11732 4.68157ZM9.94338 2.18811C11.4134 1.59336 13.0248 1.29297 14.7832 1.29297V0.292969C12.9088 0.292969 11.1686 0.613671 9.56834 1.26111L9.94338 2.18811ZM14.7832 1.29297H25.084V0.292969H14.7832V1.29297ZM25.084 1.29297C25.337 1.29297 25.5702 1.33947 25.7882 1.43029L26.1728 0.507212C25.8282 0.363657 25.4638 0.292969 25.084 0.292969V1.29297ZM25.7882 1.43029C26.0104 1.52291 26.2014 1.65073 26.3652 1.81449L27.0723 1.10738C26.8142 0.849266 26.513 0.648968 26.1728 0.507212L25.7882 1.43029ZM26.3652 1.81449C26.529 1.97825 26.6568 2.16924 26.7494 2.39153L27.6725 2.00691C27.5307 1.6667 27.3304 1.3655 27.0723 1.10738L26.3652 1.81449ZM26.7494 2.39153C26.8402 2.6095 26.8867 2.84272 26.8867 3.0957H27.8867C27.8867 2.71587 27.816 2.35144 27.6725 2.00691L26.7494 2.39153ZM26.8867 3.0957V26H27.8867V3.0957H26.8867ZM6.75 15.7422H22.8164V14.7422H6.75V15.7422ZM23.3164 15.2422V5.36328H22.3164V15.2422H23.3164ZM22.8164 4.86328H14.7832V5.86328H22.8164V4.86328ZM14.7832 4.86328C14.6122 4.86328 14.2869 4.88993 13.8357 4.9362L13.9377 5.93098C14.4006 5.88351 14.6729 5.86328 14.7832 5.86328V4.86328ZM13.8474 4.93514C13.3612 4.97353 12.8072 5.0808 12.1899 5.25026L12.4546 6.21458C13.0326 6.05592 13.5216 5.96397 13.9261 5.93204L13.8474 4.93514ZM12.1875 5.25094C11.5625 5.42593 10.9094 5.69195 10.2291 6.04428L10.6889 6.93228C11.321 6.60493 11.9102 6.36704 12.4571 6.2139L12.1875 5.25094ZM10.2291 6.04428C9.51621 6.41343 8.86706 6.91949 8.28076 7.55569L9.01612 8.23337C9.53138 7.67426 10.0893 7.24282 10.6889 6.93228L10.2291 6.04428ZM8.28076 7.55569C7.68181 8.20562 7.19505 9.01012 6.81352 9.9578L7.74117 10.3313C8.0862 9.47426 8.51351 8.77876 9.01612 8.23337L8.28076 7.55569ZM6.81227 9.96095C6.43133 10.926 6.25 12.0761 6.25 13.3965H7.25C7.25 12.1622 7.42023 11.1443 7.74242 10.3281L6.81227 9.96095ZM6.25 13.3965V15.2422H7.25V13.3965H6.25ZM56.584 21.0254L56.1081 20.8719L56.1066 20.8767L56.584 21.0254ZM51.1523 25.8242L51.0504 25.3347L51.0483 25.3352L51.1523 25.8242ZM31.957 26H31.457V26.5H31.957V26ZM31.957 21.4297V20.9297H31.457V21.4297H31.957ZM51.627 20.6562L51.2652 20.311L51.2611 20.3154L51.627 20.6562ZM51.6094 16.5078L51.2393 16.8442L51.2477 16.8531L51.6094 16.5078ZM50.7305 15.9102L50.5393 16.3722L50.5448 16.3744L50.7305 15.9102ZM36.6855 15.3125L36.5353 15.7894L36.5413 15.7912L36.6855 15.3125ZM34.2949 14.0293L33.981 14.4185L33.9841 14.4209L34.2949 14.0293ZM32.4668 11.7266L32.0207 11.9524L32.0229 11.9567L32.4668 11.7266ZM32.4668 4.7832L32.0229 4.55304L32.0218 4.55516L32.4668 4.7832ZM34.2949 2.48047L34.6088 2.86968L34.6095 2.86909L34.2949 2.48047ZM36.6855 1.19727L36.8298 1.67604L36.8358 1.67416L36.6855 1.19727ZM54.6328 0.792969H55.1328V0.292969H54.6328V0.792969ZM54.6328 5.36328V5.86328H55.1328V5.36328H54.6328ZM37.0371 6.1543L36.6716 5.81311L36.6675 5.81755L37.0371 6.1543ZM37.0371 10.3379L36.6712 10.6788L36.6794 10.6873L37.0371 10.3379ZM49.623 11.0938L49.635 10.5938H49.623V11.0938ZM51.1875 11.3047L51.0735 11.7916L51.0834 11.7937L51.1875 11.3047ZM52.8223 11.8672L52.6065 12.3183L52.6103 12.32L52.8223 11.8672ZM54.3867 12.8516L54.0721 13.2402L54.0778 13.2447L54.3867 12.8516ZM55.6875 14.2578L55.2742 14.5392L55.2783 14.5451L55.6875 14.2578ZM56.4355 18.582C56.4355 19.4415 56.3239 20.203 56.1081 20.8719L57.0598 21.1789C57.3128 20.3947 57.4355 19.5273 57.4355 18.582H56.4355ZM56.1066 20.8767C55.8968 21.5501 55.6182 22.1372 55.2742 22.6424L56.1008 23.2052C56.5068 22.6089 56.8258 21.9303 57.0614 21.1741L56.1066 20.8767ZM55.2742 22.6424C54.9277 23.1514 54.5244 23.5806 54.0647 23.9334L54.6736 24.7267C55.2217 24.3061 55.6973 23.7978 56.1008 23.2052L55.2742 22.6424ZM54.0647 23.9334C53.5886 24.2988 53.0994 24.5951 52.597 24.8245L53.0123 25.7341C53.5881 25.4713 54.1418 25.1348 54.6736 24.7267L54.0647 23.9334ZM52.597 24.8245C52.0907 25.0556 51.5753 25.2254 51.0504 25.3347L51.2543 26.3137C51.8543 26.1887 52.4405 25.9952 53.0123 25.7341L52.597 24.8245ZM51.0483 25.3352C50.5269 25.4461 50.0405 25.5 49.5879 25.5V26.5C50.1196 26.5 50.6762 26.4367 51.2564 26.3133L51.0483 25.3352ZM49.5879 25.5H31.957V26.5H49.5879V25.5ZM32.457 26V21.4297H31.457V26H32.457ZM31.957 21.9297H49.5879V20.9297H31.957V21.9297ZM49.5879 21.9297C50.5689 21.9297 51.3953 21.6383 51.9928 20.9971L51.2611 20.3154C50.8976 20.7055 50.3647 20.9297 49.5879 20.9297V21.9297ZM51.9886 21.0015C52.5881 20.3735 52.8652 19.5483 52.8652 18.582H51.8652C51.8652 19.3501 51.6502 19.9077 51.2653 20.311L51.9886 21.0015ZM52.8652 18.582C52.8652 18.1088 52.7928 17.663 52.6413 17.2497L51.7024 17.594C51.8087 17.8839 51.8652 18.2115 51.8652 18.582H52.8652ZM52.6413 17.2497C52.49 16.837 52.267 16.4726 51.9711 16.1626L51.2477 16.8531C51.444 17.0587 51.596 17.3036 51.7024 17.594L52.6413 17.2497ZM51.9793 16.1715C51.6897 15.8529 51.3318 15.6122 50.9162 15.4459L50.5448 16.3744C50.8322 16.4894 51.0603 16.6471 51.2394 16.8441L51.9793 16.1715ZM50.9216 15.4481C50.5129 15.279 50.0658 15.1992 49.5879 15.1992V16.1992C49.9537 16.1992 50.2683 16.26 50.5393 16.3722L50.9216 15.4481ZM49.5879 15.1992H39.0762V16.1992H49.5879V15.1992ZM39.0762 15.1992C38.3958 15.1992 37.648 15.0803 36.8298 14.8338L36.5413 15.7912C37.4341 16.0603 38.28 16.1992 39.0762 16.1992V15.1992ZM36.8358 14.8356C36.0415 14.5854 35.2986 14.1876 34.6058 13.6377L33.9841 14.4209C34.7678 15.0429 35.6186 15.5006 36.5353 15.7894L36.8358 14.8356ZM34.6088 13.6401C33.9434 13.1035 33.3756 12.3931 32.9107 11.4964L32.0229 11.9567C32.5424 12.9585 33.1933 13.7832 33.981 14.4185L34.6088 13.6401ZM32.9129 11.5008C32.4766 10.6388 32.2461 9.56066 32.2461 8.24609H31.2461C31.2461 9.67371 31.4961 10.9159 32.0207 11.9524L32.9129 11.5008ZM32.2461 8.24609C32.2461 6.93121 32.4767 5.86015 32.9118 5.01125L32.0218 4.55516C31.496 5.58126 31.2461 6.81879 31.2461 8.24609H32.2461ZM32.9107 5.01336C33.3756 4.11668 33.9434 3.40628 34.6088 2.86968L33.981 2.09126C33.1933 2.72653 32.5424 3.55129 32.0229 4.55304L32.9107 5.01336ZM34.6095 2.86909C35.3006 2.30962 36.0403 1.91394 36.8298 1.676L36.5413 0.718533C35.6199 0.996215 34.7658 1.456 33.9803 2.09185L34.6095 2.86909ZM36.8358 1.67416C37.6527 1.41677 38.3984 1.29297 39.0762 1.29297V0.292969C38.2773 0.292969 37.4293 0.438699 36.5353 0.720376L36.8358 1.67416ZM39.0762 1.29297H54.6328V0.292969H39.0762V1.29297ZM54.1328 0.792969V5.36328H55.1328V0.792969H54.1328ZM54.6328 4.86328H39.0762V5.86328H54.6328V4.86328ZM39.0762 4.86328C38.1007 4.86328 37.2772 5.16426 36.6716 5.81314L37.4026 6.49546C37.7814 6.08964 38.3173 5.86328 39.0762 5.86328V4.86328ZM36.6675 5.81755C36.0859 6.45591 35.8164 7.28256 35.8164 8.24609H36.8164C36.8164 7.47525 37.0274 6.90737 37.4067 6.49104L36.6675 5.81755ZM35.8164 8.24609C35.8164 9.21882 36.0846 10.0492 36.6713 10.6788L37.4029 9.99703C37.0286 9.59538 36.8164 9.03118 36.8164 8.24609H35.8164ZM36.6794 10.6873C37.2866 11.3089 38.1075 11.5938 39.0762 11.5938V10.5938C38.3105 10.5938 37.772 10.3747 37.3948 9.98852L36.6794 10.6873ZM39.0762 11.5938H49.5879V10.5938H39.0762V11.5938ZM49.5879 11.5938H49.623V10.5938H49.5879V11.5938ZM49.6111 11.5936C50.0643 11.6044 50.5514 11.6693 51.0736 11.7915L51.3014 10.8178C50.722 10.6822 50.1661 10.6065 49.6349 10.5939L49.6111 11.5936ZM51.0834 11.7937C51.5934 11.9022 52.1009 12.0764 52.6065 12.3183L53.038 11.4161C52.4655 11.1423 51.8832 10.9415 51.2916 10.8156L51.0834 11.7937ZM52.6103 12.32C53.1229 12.56 53.6101 12.8662 54.0721 13.2402L54.7013 12.4629C54.1789 12.0401 53.6232 11.69 53.0342 11.4143L52.6103 12.32ZM54.0778 13.2447C54.5271 13.5978 54.9262 14.0281 55.2742 14.5392L56.1008 13.9764C55.6988 13.386 55.2307 12.8788 54.6956 12.4584L54.0778 13.2447ZM55.2783 14.5451C55.6321 15.049 55.9152 15.6341 56.1242 16.3049L57.0789 16.0076C56.8426 15.2488 56.5163 14.5682 56.0967 13.9705L55.2783 14.5451ZM56.1242 16.3049C56.3291 16.963 56.4355 17.7201 56.4355 18.582H57.4355C57.4355 17.6393 57.3193 16.7792 57.0789 16.0076L56.1242 16.3049ZM84.4805 14.2402L84.0716 13.9525L84.0705 13.954L84.4805 14.2402ZM81.1582 16.9473L81.3645 17.4028L81.3683 17.401L81.1582 16.9473ZM79.2598 17.5625L79.1617 17.0722L79.16 17.0726L79.2598 17.5625ZM77.4668 17.7559V17.2559H76.123L77.14 18.1343L77.4668 17.7559ZM87.0117 26V26.5H88.3555L87.3385 25.6216L87.0117 26ZM79.9453 26L79.6181 26.3781L79.759 26.5H79.9453V26ZM70.418 17.7559L70.7451 17.3778L70.6043 17.2559H70.418V17.7559ZM67.1309 17.7559H66.6309V18.2559H67.1309V17.7559ZM67.1309 13.1855V12.6855H66.6309V13.1855H67.1309ZM77.4668 13.1855V13.6855H77.4872L77.5075 13.6839L77.4668 13.1855ZM79.0312 12.834L79.217 13.2983L79.2228 13.2959L79.0312 12.834ZM80.2617 12.043L79.9205 11.6774L79.9144 11.6833L80.2617 12.043ZM81.0703 10.8652L81.5329 11.055L81.5346 11.0509L81.0703 10.8652ZM81.2461 5.80273L80.7846 5.99504L80.7946 6.01919L80.8071 6.04216L81.2461 5.80273ZM81 5.50391L80.7 5.90391L80.7273 5.9244L80.7572 5.94098L81 5.50391ZM80.6836 5.38086L80.6284 5.87783L80.6338 5.87838L80.6836 5.38086ZM65.3027 5.36328V4.86328H64.8027V5.36328H65.3027ZM65.3027 26V26.5H65.8027V26H65.3027ZM60.7324 26H60.2324V26.5H60.7324V26ZM61.3828 1.46094L61.0293 1.10738L61.0242 1.11243L61.0193 1.11763L61.3828 1.46094ZM82.9688 1.35547L82.7334 1.79668L82.7392 1.79968L82.9688 1.35547ZM84.6738 2.74414L84.2777 3.04948L84.285 3.0585L84.6738 2.74414ZM85.623 4.53711L85.1429 4.67679L85.1453 4.68476L85.623 4.53711ZM85.4219 9.26562C85.4219 10.2682 85.2979 11.1479 85.0582 11.9106L86.0122 12.2105C86.2881 11.3326 86.4219 10.349 86.4219 9.26562H85.4219ZM85.0582 11.9106C84.8141 12.6872 84.4841 13.3662 84.0716 13.9525L84.8894 14.528C85.3675 13.8486 85.7406 13.0745 86.0122 12.2105L85.0582 11.9106ZM84.0705 13.954C83.6645 14.5356 83.1951 15.0316 82.6623 15.4447L83.2752 16.235C83.8909 15.7575 84.4292 15.1871 84.8904 14.5264L84.0705 13.954ZM82.6623 15.4447C82.1167 15.8679 81.5453 16.2171 80.9481 16.4935L81.3683 17.401C82.0367 17.0915 82.6724 16.7024 83.2752 16.235L82.6623 15.4447ZM80.9519 16.4918C80.3642 16.7579 79.7676 16.951 79.1617 17.0722L79.3578 18.0528C80.041 17.9162 80.71 17.6991 81.3645 17.4027L80.9519 16.4918ZM79.16 17.0726C78.5553 17.1957 77.9913 17.2559 77.4668 17.2559V18.2559C78.0673 18.2559 78.6986 18.1871 79.3596 18.0524L79.16 17.0726ZM77.14 18.1343L86.6849 26.3784L87.3385 25.6216L77.7936 17.3775L77.14 18.1343ZM87.0117 25.5H79.9453V26.5H87.0117V25.5ZM80.2725 25.6219L70.7451 17.3778L70.0908 18.134L79.6181 26.3781L80.2725 25.6219ZM70.418 17.2559H67.1309V18.2559H70.418V17.2559ZM67.6309 17.7559V13.1855H66.6309V17.7559H67.6309ZM67.1309 13.6855H77.4668V12.6855H67.1309V13.6855ZM77.5075 13.6839C78.1246 13.6335 78.6958 13.5067 79.2169 13.2982L78.8456 12.3697C78.4292 12.5363 77.9575 12.6438 77.4261 12.6872L77.5075 13.6839ZM79.2228 13.2959C79.7552 13.0751 80.2198 12.7785 80.609 12.4027L79.9144 11.6833C79.624 11.9637 79.2682 12.1945 78.8397 12.3721L79.2228 13.2959ZM80.6029 12.4085C81.0086 12.0299 81.3188 11.5768 81.5329 11.055L80.6077 10.6755C80.4468 11.0677 80.218 11.3998 79.9206 11.6774L80.6029 12.4085ZM81.5346 11.0509C81.7496 10.5133 81.8516 9.91542 81.8516 9.26562H80.8516C80.8516 9.81114 80.766 10.2796 80.6061 10.6795L81.5346 11.0509ZM81.8516 9.26562V6.38281H80.8516V9.26562H81.8516ZM81.8516 6.38281C81.8516 6.09591 81.8153 5.80202 81.685 5.56331L80.8071 6.04216C80.8176 6.06126 80.8516 6.15409 80.8516 6.38281H81.8516ZM81.7076 5.61043C81.6173 5.39371 81.4701 5.19309 81.2428 5.06683L80.7572 5.94098C80.7514 5.93779 80.7507 5.93557 80.7547 5.94041C80.7594 5.94619 80.7708 5.96211 80.7846 5.99504L81.7076 5.61043ZM81.3 5.10391C81.1329 4.97859 80.9408 4.90409 80.7333 4.88334L80.6338 5.87838C80.6608 5.88107 80.6796 5.8886 80.7 5.90391L81.3 5.10391ZM80.7388 4.88392C80.6174 4.87042 80.4992 4.86328 80.3848 4.86328V5.86328C80.4579 5.86328 80.5389 5.86786 80.6284 5.8778L80.7388 4.88392ZM80.3848 4.86328H65.3027V5.86328H80.3848V4.86328ZM64.8027 5.36328V26H65.8027V5.36328H64.8027ZM65.3027 25.5H60.7324V26.5H65.3027V25.5ZM61.2324 26V3.0957H60.2324V26H61.2324ZM61.2324 3.0957C61.2324 2.84272 61.2789 2.6095 61.3697 2.39153L60.4467 2.00691C60.3031 2.35144 60.2324 2.71587 60.2324 3.0957H61.2324ZM61.3697 2.39153C61.4648 2.16329 61.5907 1.96902 61.7463 1.80425L61.0193 1.11763C60.7765 1.37473 60.5859 1.67264 60.4467 2.00691L61.3697 2.39153ZM61.7364 1.81449C61.9001 1.65073 62.0911 1.52291 62.3134 1.43029L61.9288 0.507212C61.5886 0.648968 61.2874 0.849266 61.0293 1.10738L61.7364 1.81449ZM62.3134 1.43029C62.5292 1.34039 62.7679 1.29297 63.0352 1.29297V0.292969C62.6461 0.292969 62.2755 0.362733 61.9288 0.507212L62.3134 1.43029ZM63.0352 1.29297H80.3848V0.292969H63.0352V1.29297ZM80.3848 1.29297C81.3446 1.29297 82.1202 1.46957 82.7335 1.79665L83.204 0.914292C82.4111 0.491372 81.464 0.292969 80.3848 0.292969V1.29297ZM82.7392 1.79968C83.3849 2.13325 83.8938 2.55116 84.2778 3.04939L85.0698 2.43889C84.5867 1.81212 83.9589 1.30425 83.1983 0.911256L82.7392 1.79968ZM84.285 3.0585C84.6909 3.56058 84.975 4.09943 85.1429 4.67677L86.1031 4.39744C85.8961 3.68572 85.5473 3.02927 85.0626 2.42978L84.285 3.0585ZM85.1453 4.68476C85.3326 5.29068 85.4219 5.84402 85.4219 6.34766H86.4219C86.4219 5.72629 86.3119 5.0726 86.1007 4.38946L85.1453 4.68476ZM85.4219 6.34766V9.26562H86.4219V6.34766H85.4219ZM114.188 16.3145L113.779 16.0267L113.778 16.0282L114.188 16.3145ZM110.865 19.0039L110.662 18.547L110.659 18.5484L110.865 19.0039ZM108.967 19.6191L108.869 19.1288L108.867 19.1292L108.967 19.6191ZM96.8379 19.8125H96.3379V20.3125H96.8379V19.8125ZM96.8379 15.2422V14.7422H96.3379V15.2422H96.8379ZM107.174 15.2422V15.7422H107.194L107.214 15.7406L107.174 15.2422ZM108.756 14.8906L108.942 15.3549L108.947 15.3525L108.756 14.8906ZM110.777 12.9219L111.24 13.1117L111.242 13.1076L110.777 12.9219ZM111.059 9.26562H111.559V9.24018L111.556 9.21487L111.059 9.26562ZM109.916 6.45312L109.55 6.79389L109.556 6.80042L109.916 6.45312ZM108.756 5.66211L108.556 6.12057L108.566 6.12469L108.756 5.66211ZM95.0098 26V26.5H95.5098V26H95.0098ZM90.4395 26H89.9395V26.5H90.4395V26ZM91.0723 4.2207L90.6302 3.98703L90.6276 3.99203L91.0723 4.2207ZM92.6719 2.23438L92.3639 1.84046L92.3604 1.84323L92.6719 2.23438ZM94.7637 1.14453L94.906 1.6239L94.9128 1.62177L94.7637 1.14453ZM109.951 1.19727L109.795 1.67232L109.801 1.67426L109.951 1.19727ZM112.113 2.25195L111.822 2.65839L111.831 2.66442L112.113 2.25195ZM113.713 3.76367L113.314 4.065L113.318 4.07008L113.713 3.76367ZM114.803 5.57422L114.346 5.77734L114.351 5.78753L114.803 5.57422ZM115.436 7.47266L114.945 7.57071L114.946 7.57246L115.436 7.47266ZM115.129 11.3398C115.129 12.3424 115.005 13.2221 114.765 13.9849L115.719 14.2847C115.995 13.4068 116.129 12.4232 116.129 11.3398H115.129ZM114.765 13.9849C114.521 14.7614 114.191 15.4405 113.779 16.0267L114.596 16.6022C115.074 15.9228 115.448 15.1488 115.719 14.2847L114.765 13.9849ZM113.778 16.0282C113.372 16.6098 112.902 17.1058 112.369 17.519L112.982 18.3092C113.598 17.8317 114.136 17.2613 114.597 16.6007L113.778 16.0282ZM112.369 17.519C111.825 17.9408 111.256 18.2829 110.662 18.547L111.068 19.4608C111.74 19.1624 112.378 18.778 112.982 18.3092L112.369 17.519ZM110.659 18.5484C110.071 18.8146 109.475 19.0077 108.869 19.1289L109.065 20.1094C109.748 19.9728 110.417 19.7557 111.071 19.4594L110.659 18.5484ZM108.867 19.1292C108.262 19.2524 107.698 19.3125 107.174 19.3125V20.3125C107.774 20.3125 108.406 20.2437 109.067 20.1091L108.867 19.1292ZM107.174 19.3125H96.8379V20.3125H107.174V19.3125ZM97.3379 19.8125V15.2422H96.3379V19.8125H97.3379ZM96.8379 15.7422H107.174V14.7422H96.8379V15.7422ZM107.214 15.7406C107.842 15.6904 108.419 15.5638 108.942 15.3549L108.57 14.4264C108.155 14.5925 107.678 14.7003 107.134 14.7438L107.214 15.7406ZM108.947 15.3525C109.48 15.1317 109.944 14.8351 110.334 14.4593L109.639 13.7399C109.349 14.0203 108.993 14.2511 108.564 14.4288L108.947 15.3525ZM110.334 14.4593C110.726 14.0809 111.027 13.6297 111.24 13.1117L110.315 12.7321C110.152 13.1281 109.927 13.462 109.639 13.7399L110.334 14.4593ZM111.242 13.1076C111.456 12.5711 111.559 11.9793 111.559 11.3398H110.559C110.559 11.8723 110.474 12.3352 110.313 12.7362L111.242 13.1076ZM111.559 11.3398V9.26562H110.559V11.3398H111.559ZM111.556 9.21487C111.493 8.60101 111.361 8.02899 111.155 7.50182L110.224 7.86536C110.393 8.29913 110.507 8.7818 110.561 9.31638L111.556 9.21487ZM111.155 7.50182C110.946 6.9654 110.654 6.49749 110.276 6.10583L109.556 6.80042C109.834 7.08845 110.058 7.44085 110.224 7.86536L111.155 7.50182ZM110.282 6.11242C109.913 5.71636 109.465 5.41266 108.946 5.19953L108.566 6.12469C108.961 6.28656 109.286 6.5102 109.55 6.79383L110.282 6.11242ZM108.956 5.20376C108.424 4.97217 107.827 4.86328 107.174 4.86328V5.86328C107.716 5.86328 108.173 5.95361 108.556 6.12046L108.956 5.20376ZM107.174 4.86328H96.873V5.86328H107.174V4.86328ZM96.873 4.86328C96.1803 4.86328 95.5708 5.04432 95.1308 5.48434L95.8379 6.19144C96.0307 5.99865 96.3471 5.86328 96.873 5.86328V4.86328ZM95.1308 5.48434C94.6925 5.92265 94.5098 6.52467 94.5098 7.20898H95.5098C95.5098 6.69798 95.6434 6.38594 95.8379 6.19144L95.1308 5.48434ZM94.5098 7.20898V26H95.5098V7.20898H94.5098ZM95.0098 25.5H90.4395V26.5H95.0098V25.5ZM90.9395 26V7.20898H89.9395V26H90.9395ZM90.9395 7.20898C90.9395 6.09571 91.1399 5.18242 91.5169 4.44938L90.6276 3.99203C90.1609 4.89961 89.9395 5.97851 89.9395 7.20898H90.9395ZM91.5143 4.45436C91.9204 3.68607 92.4118 3.08062 92.9833 2.62552L92.3604 1.84323C91.6663 2.39594 91.0913 3.11471 90.6302 3.98705L91.5143 4.45436ZM92.9798 2.62828C93.5773 2.16118 94.2188 1.82786 94.906 1.62385L94.6214 0.665208C93.8086 0.906512 93.0555 1.29975 92.3639 1.84047L92.9798 2.62828ZM94.9128 1.62177C95.6257 1.39899 96.2662 1.29297 96.8379 1.29297V0.292969C96.144 0.292969 95.4016 0.421318 94.6145 0.667291L94.9128 1.62177ZM96.8379 1.29297H107.174V0.292969H96.8379V1.29297ZM107.174 1.29297C108.162 1.29297 109.034 1.42216 109.795 1.67228L110.107 0.72225C109.228 0.433313 108.248 0.292969 107.174 0.292969V1.29297ZM109.801 1.67426C110.577 1.91814 111.249 2.24749 111.822 2.6583L112.405 1.84561C111.735 1.36579 110.966 0.992017 110.101 0.720269L109.801 1.67426ZM111.831 2.66442C112.422 3.06951 112.915 3.53662 113.314 4.06497L114.112 3.46237C113.644 2.84229 113.07 2.30158 112.396 1.83949L111.831 2.66442ZM113.318 4.07008C113.74 4.61404 114.082 5.18306 114.346 5.77729L115.26 5.37115C114.961 4.69976 114.577 4.06174 114.108 3.45726L113.318 4.07008ZM114.351 5.78753C114.627 6.37354 114.825 6.96775 114.945 7.57071L115.926 7.3746C115.789 6.6885 115.564 6.01709 115.255 5.36091L114.351 5.78753ZM114.946 7.57246C115.069 8.17715 115.129 8.74114 115.129 9.26562H116.129C116.129 8.66511 116.06 8.03379 115.925 7.37285L114.946 7.57246ZM115.129 9.26562V11.3398H116.129V9.26562H115.129Z" fill="white"/>
<path fill-rule="evenodd" clip-rule="evenodd" d="M118 3C118 1.89543 118.895 1 120 1H141C142.105 1 143 1.89543 143 3V7H138.746C136.823 4.56374 133.844 2.99999 130.499 2.99999C124.7 2.99999 119.999 7.701 119.999 13.5C119.999 19.299 124.7 24 130.499 24C134.281 24 137.597 22.0001 139.445 19H143V24C143 25.1046 142.105 26 141 26H120C118.895 26 118 25.1046 118 24V3Z" fill="white"/>
</svg>
