<svg width="55" height="26" viewBox="0 0 55 26" fill="none" xmlns="http://www.w3.org/2000/svg">
<path d="M27.7734 11.3398C27.7734 12.3828 27.6445 13.3145 27.3867 14.1348C27.1289 14.9551 26.7773 15.6816 26.332 16.3145C25.8984 16.9355 25.3945 17.4688 24.8203 17.9141C24.2461 18.3594 23.6426 18.7227 23.0098 19.0039C22.3887 19.2852 21.7559 19.4902 21.1113 19.6191C20.4785 19.748 19.8809 19.8125 19.3184 19.8125H8.98242V15.2422H19.3184C19.9043 15.1953 20.4316 15.0781 20.9004 14.8906C21.3809 14.6914 21.791 14.4277 22.1309 14.0996C22.4707 13.7715 22.7344 13.3789 22.9219 12.9219C23.1094 12.4531 23.2031 11.9258 23.2031 11.3398V9.26562C23.1445 8.69141 23.0215 8.16406 22.834 7.68359C22.6465 7.20313 22.3887 6.79297 22.0605 6.45312C21.7441 6.11328 21.3574 5.84961 20.9004 5.66211C20.4434 5.46289 19.916 5.36328 19.3184 5.36328H9.01758C8.4082 5.36328 7.94531 5.52148 7.62891 5.83789C7.3125 6.1543 7.1543 6.61133 7.1543 7.20898V26H2.58398V7.20898C2.58398 6.03711 2.79492 5.04102 3.2168 4.2207C3.65039 3.40039 4.18359 2.73828 4.81641 2.23438C5.46094 1.73047 6.1582 1.36719 6.9082 1.14453C7.6582 0.910156 8.34961 0.792969 8.98242 0.792969H19.3184C20.3496 0.792969 21.2754 0.927734 22.0957 1.19727C22.916 1.45508 23.6367 1.80664 24.2578 2.25195C24.8906 2.68555 25.4238 3.18945 25.8574 3.76367C26.3027 4.33789 26.666 4.94141 26.9473 5.57422C27.2402 6.19531 27.4512 6.82812 27.5801 7.47266C27.709 8.10547 27.7734 8.70312 27.7734 9.26562V11.3398Z" fill="white"/>
<path d="M26.332 16.3145L25.9231 16.0267L25.9221 16.0282L26.332 16.3145ZM23.0098 19.0039L22.8067 18.547L22.8035 18.5484L23.0098 19.0039ZM21.1113 19.6191L21.0133 19.1288L21.0115 19.1292L21.1113 19.6191ZM8.98242 19.8125H8.48242V20.3125H8.98242V19.8125ZM8.98242 15.2422V14.7422H8.48242V15.2422H8.98242ZM19.3184 15.2422V15.7422H19.3383L19.3582 15.7406L19.3184 15.2422ZM20.9004 14.8906L21.0861 15.3549L21.0919 15.3525L20.9004 14.8906ZM22.9219 12.9219L23.3845 13.1117L23.3861 13.1076L22.9219 12.9219ZM23.2031 9.26562H23.7031V9.24018L23.7005 9.21487L23.2031 9.26562ZM22.0605 6.45312L21.6945 6.79389L21.7008 6.80042L22.0605 6.45312ZM20.9004 5.66211L20.7006 6.12057L20.7106 6.12469L20.9004 5.66211ZM7.1543 26V26.5H7.6543V26H7.1543ZM2.58398 26H2.08398V26.5H2.58398V26ZM3.2168 4.2207L2.77472 3.98703L2.77215 3.99203L3.2168 4.2207ZM4.81641 2.23438L4.50843 1.84046L4.50494 1.84323L4.81641 2.23438ZM6.9082 1.14453L7.05052 1.6239L7.05734 1.62177L6.9082 1.14453ZM22.0957 1.19727L21.9396 1.67232L21.9458 1.67426L22.0957 1.19727ZM24.2578 2.25195L23.9664 2.65839L23.9752 2.66442L24.2578 2.25195ZM25.8574 3.76367L25.4584 4.065L25.4623 4.07008L25.8574 3.76367ZM26.9473 5.57422L26.4902 5.77734L26.495 5.78753L26.9473 5.57422ZM27.5801 7.47266L27.0898 7.57071L27.0901 7.57246L27.5801 7.47266ZM27.2734 11.3398C27.2734 12.3424 27.1494 13.2221 26.9097 13.9849L27.8637 14.2847C28.1396 13.4068 28.2734 12.4232 28.2734 11.3398H27.2734ZM26.9097 13.9849C26.6657 14.7614 26.3357 15.4405 25.9231 16.0267L26.7409 16.6022C27.219 15.9228 27.5921 15.1488 27.8637 14.2847L26.9097 13.9849ZM25.9221 16.0282C25.5161 16.6098 25.0466 17.1058 24.5139 17.519L25.1267 18.3092C25.7424 17.8317 26.2808 17.2613 26.742 16.6007L25.9221 16.0282ZM24.5139 17.519C23.9699 17.9408 23.4009 18.2829 22.8067 18.547L23.2128 19.4608C23.8842 19.1624 24.5222 18.778 25.1267 18.3092L24.5139 17.519ZM22.8035 18.5484C22.2158 18.8146 21.6192 19.0077 21.0133 19.1289L21.2094 20.1094C21.8926 19.9728 22.5616 19.7557 23.216 19.4594L22.8035 18.5484ZM21.0115 19.1292C20.4068 19.2524 19.8428 19.3125 19.3184 19.3125V20.3125C19.9189 20.3125 20.5502 20.2437 21.2111 20.1091L21.0115 19.1292ZM19.3184 19.3125H8.98242V20.3125H19.3184V19.3125ZM9.48242 19.8125V15.2422H8.48242V19.8125H9.48242ZM8.98242 15.7422H19.3184V14.7422H8.98242V15.7422ZM19.3582 15.7406C19.9862 15.6904 20.5638 15.5638 21.0861 15.3549L20.7147 14.4264C20.2995 14.5925 19.8224 14.7003 19.2785 14.7438L19.3582 15.7406ZM21.0919 15.3525C21.6244 15.1317 22.0889 14.8351 22.4782 14.4593L21.7836 13.7399C21.4931 14.0203 21.1373 14.2511 20.7089 14.4288L21.0919 15.3525ZM22.4782 14.4593C22.87 14.0809 23.1719 13.6297 23.3845 13.1117L22.4593 12.7321C22.2968 13.1281 22.0714 13.462 21.7836 13.7399L22.4782 14.4593ZM23.3861 13.1076C23.6007 12.5711 23.7031 11.9793 23.7031 11.3398H22.7031C22.7031 11.8723 22.618 12.3352 22.4576 12.7362L23.3861 13.1076ZM23.7031 11.3398V9.26562H22.7031V11.3398H23.7031ZM23.7005 9.21487C23.6379 8.60101 23.5055 8.02899 23.2998 7.50182L22.3682 7.86536C22.5375 8.29913 22.6512 8.7818 22.7057 9.31638L23.7005 9.21487ZM23.2998 7.50182C23.0904 6.9654 22.7984 6.49749 22.4202 6.10583L21.7008 6.80042C21.9789 7.08845 22.2025 7.44085 22.3682 7.86536L23.2998 7.50182ZM22.4265 6.11242C22.0578 5.71636 21.6097 5.41266 21.0902 5.19953L20.7106 6.12469C21.1052 6.28656 21.4305 6.5102 21.6946 6.79383L22.4265 6.11242ZM21.1002 5.20376C20.5689 4.97217 19.9714 4.86328 19.3184 4.86328V5.86328C19.8607 5.86328 20.3178 5.95361 20.7006 6.12046L21.1002 5.20376ZM19.3184 4.86328H9.01758V5.86328H19.3184V4.86328ZM9.01758 4.86328C8.32479 4.86328 7.71537 5.04432 7.27535 5.48434L7.98246 6.19144C8.17526 5.99865 8.49162 5.86328 9.01758 5.86328V4.86328ZM7.27535 5.48434C6.83704 5.92265 6.6543 6.52467 6.6543 7.20898H7.6543C7.6543 6.69798 7.78796 6.38594 7.98246 6.19144L7.27535 5.48434ZM6.6543 7.20898V26H7.6543V7.20898H6.6543ZM7.1543 25.5H2.58398V26.5H7.1543V25.5ZM3.08398 26V7.20898H2.08398V26H3.08398ZM3.08398 7.20898C3.08398 6.09571 3.28445 5.18242 3.66144 4.44938L2.77215 3.99203C2.3054 4.89961 2.08398 5.97851 2.08398 7.20898H3.08398ZM3.65884 4.45436C4.06494 3.68607 4.55634 3.08062 5.12787 2.62552L4.50494 1.84323C3.81085 2.39594 3.23584 3.11471 2.77475 3.98705L3.65884 4.45436ZM5.12437 2.62828C5.72181 2.16118 6.36332 1.82786 7.0505 1.62385L6.7659 0.665208C5.95309 0.906512 5.20006 1.29975 4.50845 1.84047L5.12437 2.62828ZM7.05734 1.62177C7.77023 1.39899 8.41068 1.29297 8.98242 1.29297V0.292969C8.28853 0.292969 7.54618 0.421318 6.75907 0.667291L7.05734 1.62177ZM8.98242 1.29297H19.3184V0.292969H8.98242V1.29297ZM19.3184 1.29297C20.3066 1.29297 21.1784 1.42216 21.9396 1.67228L22.2518 0.72225C21.3724 0.433313 20.3926 0.292969 19.3184 0.292969V1.29297ZM21.9458 1.67426C22.7218 1.91814 23.3935 2.24749 23.9665 2.6583L24.5492 1.84561C23.8799 1.36579 23.1103 0.992017 22.2456 0.720269L21.9458 1.67426ZM23.9752 2.66442C24.5664 3.06951 25.0594 3.53662 25.4584 4.06497L26.2564 3.46237C25.7882 2.84229 25.2148 2.30158 24.5404 1.83949L23.9752 2.66442ZM25.4623 4.07008C25.8842 4.61404 26.2263 5.18306 26.4904 5.77729L27.4042 5.37115C27.1058 4.69976 26.7213 4.06174 26.2525 3.45726L25.4623 4.07008ZM26.495 5.78753C26.7715 6.37354 26.9692 6.96775 27.0898 7.57071L28.0704 7.3746C27.9331 6.6885 27.709 6.01709 27.3995 5.36091L26.495 5.78753ZM27.0901 7.57246C27.2133 8.17715 27.2734 8.74114 27.2734 9.26562H28.2734C28.2734 8.66511 28.2047 8.03379 28.07 7.37285L27.0901 7.57246ZM27.2734 9.26562V11.3398H28.2734V9.26562H27.2734Z" fill="white"/>
<path fill-rule="evenodd" clip-rule="evenodd" d="M30 3C30 1.89543 30.8954 1 32 1H53C54.1046 1 55 1.89543 55 3V24C55 25.1046 54.1046 26 53 26H32C30.8954 26 30 25.1046 30 24V3ZM50.7457 7H55V19H51.4449C49.5966 22.0001 46.2813 24 42.4989 24C36.7 24 31.999 19.299 31.999 13.5C31.999 7.701 36.7 2.99999 42.4989 2.99999C45.8435 2.99999 48.8229 4.56374 50.7457 7Z" fill="white"/>
</svg>
