<svg width="20" height="20" viewBox="0 0 20 20" fill="none" xmlns="http://www.w3.org/2000/svg">
<path fill-rule="evenodd" clip-rule="evenodd" d="M0 1.66667C0 1.22464 0.15051 0.800716 0.418419 0.488156C0.686328 0.175595 1.04969 0 1.42857 0H18.5714C18.9503 0 19.3137 0.175595 19.5816 0.488156C19.8495 0.800716 20 1.22464 20 1.66667C20 2.10869 19.8495 2.53262 19.5816 2.84518C19.3137 3.15774 18.9503 3.33333 18.5714 3.33333H1.42857C1.04969 3.33333 0.686328 3.15774 0.418419 2.84518C0.15051 2.53262 0 2.10869 0 1.66667ZM0 10C0 9.55797 0.15051 9.13405 0.418419 8.82149C0.686328 8.50893 1.04969 8.33333 1.42857 8.33333H18.5714C18.9503 8.33333 19.3137 8.50893 19.5816 8.82149C19.8495 9.13405 20 9.55797 20 10C20 10.442 19.8495 10.8659 19.5816 11.1785C19.3137 11.4911 18.9503 11.6667 18.5714 11.6667H1.42857C1.04969 11.6667 0.686328 11.4911 0.418419 11.1785C0.15051 10.8659 0 10.442 0 10ZM0 18.3333C0 17.8913 0.15051 17.4674 0.418419 17.1548C0.686328 16.8423 1.04969 16.6667 1.42857 16.6667H18.5714C18.9503 16.6667 19.3137 16.8423 19.5816 17.1548C19.8495 17.4674 20 17.8913 20 18.3333C20 18.7754 19.8495 19.1993 19.5816 19.5118C19.3137 19.8244 18.9503 20 18.5714 20H1.42857C1.04969 20 0.686328 19.8244 0.418419 19.5118C0.15051 19.1993 0 18.7754 0 18.3333Z" fill="white"/>
</svg>
