<svg width="20" height="20" viewBox="0 0 20 20" fill="none" xmlns="http://www.w3.org/2000/svg">
<path d="M11.5 18.3333C11.5 19.2538 10.7538 20 9.83333 20L1.66667 20C0.746192 20 0 19.2538 0 18.3333V18.3333C0 17.4129 0.746192 16.6667 1.66667 16.6667L9.83333 16.6667C10.7538 16.6667 11.5 17.4129 11.5 18.3333V18.3333ZM20 10C20 10.9205 19.2538 11.6667 18.3333 11.6667H1.66667C0.746193 11.6667 0 10.9205 0 10V10C0 9.07953 0.746192 8.33334 1.66667 8.33334H18.3333C19.2538 8.33334 20 9.07953 20 10V10ZM20 1.66667C20 2.58714 19.2538 3.33334 18.3333 3.33334L9.66667 3.33333C8.74619 3.33333 8 2.58714 8 1.66667V1.66667C8 0.746193 8.74619 7.67207e-07 9.66667 1.01647e-06L18.3333 3.36337e-06C19.2538 3.61263e-06 20 0.746195 20 1.66667V1.66667Z" fill="white"/>
</svg>
